<?xml version="1.0" encoding="utf-8"?>
<!-- Generator: Adobe Illustrator 19.1.0, SVG Export Plug-In . SVG Version: 6.00 Build 0)  -->
<svg version="1.1" id="Layer_1" xmlns="http://www.w3.org/2000/svg" xmlns:xlink="http://www.w3.org/1999/xlink" x="0px" y="0px"
	 viewBox="0 0 1096.8 253.1" style="enable-background:new 0 0 1096.8 253.1;" xml:space="preserve">
<style type="text/css">
	.st0{fill:none;stroke:#0563C9;stroke-width:4.5559;stroke-miterlimit:10;}
	.st1{fill:none;stroke:#0563C9;stroke-width:4.5559;stroke-miterlimit:10;stroke-dasharray:11.9457,11.9457;}
	.st2{fill:#1871E8;stroke:#0563C9;stroke-width:4.5559;stroke-miterlimit:10;}
	.st3{fill:none;stroke:#0563C9;stroke-width:4.5559;stroke-linejoin:bevel;stroke-miterlimit:10;}
	.st4{fill:none;}
	.st5{clip-path:url(#SVGID_3_);fill:none;stroke:#0563C9;stroke-width:4.5559;stroke-miterlimit:10;}
	.st6{fill:#1871E8;}
</style>
<g>
	<g>
		<path class="st0" d="M49.7,91.6c-0.2,1.8-0.3,3.8-0.2,6"/>
		<path class="st1" d="M51.2,109.4c5,21.5,20.6,48.7,48.1,44.9c36.4-5,36.5-87.6,102.3-85.4C267.5,71.1,319.6-15.7,367,9.5
			c64.1,34.1,52.3,64.6,205.5,29s295.7-17.8,339,11.3c43.3,29.1,114.1,2.6,146.7,35.5c32.6,32.9,31.6,121.8-87.2,101
			c-83.3-14.6-119,20.2-187.2-52s-110.2-30.7-137.2,32.9c-27,63.6-80.9,117.8-219.3,52.7c-98.8-46.4-143.7-54.2-161.7-52.5"/>
		<path class="st0" d="M259.6,168.6c-3,1-4.3,2.3-4.5,3.5"/>
	</g>
</g>
<path class="st2" d="M421.5,26.8c-2.8,0-5.5,0.7-7.8,1.9c-3.1-9.3-12-16-22.3-16c-12.7,0-23,10-23.5,22.5c-1.7-0.8-3.5-1.2-5.4-1.2
	c-7.3,0-13.2,5.9-13.2,13.2c0,7.3,5.9,13.2,13.2,13.2h59.1c9.3,0,16.8-7.5,16.8-16.8C438.3,34.4,430.8,26.8,421.5,26.8z"/>
<g>
	<path class="st2" d="M959.9,95V11.5c0-5.1-4.2-9.3-9.3-9.3h-78.3c-5.1,0-9.3,4.2-9.3,9.3V95H959.9z"/>
	<g>
		<path class="st2" d="M872.9,95v10.4c0,3.8,3.1,6.8,6.8,6.8h5.4c3.8,0,6.8-3.1,6.8-6.8V95H872.9z"/>
		<path class="st2" d="M931,95v10.4c0,3.8,3.1,6.8,6.8,6.8h5.4c3.8,0,6.8-3.1,6.8-6.8V95H931z"/>
	</g>
	<polygon class="st0" points="946.7,49.8 876.2,49.8 879.2,24.4 943.7,24.4 	"/>
	<circle class="st0" cx="882.4" cy="71.5" r="6.4"/>
	<circle class="st0" cx="940.5" cy="71.5" r="6.4"/>
	<rect x="891.9" y="9.5" class="st0" width="39" height="7.5"/>
	<g>
		<circle class="st2" cx="837.7" cy="26.6" r="11.9"/>
		<line class="st0" x1="837.7" y1="38.5" x2="837.7" y2="112.3"/>
		<line class="st0" x1="847.5" y1="112.3" x2="828" y2="112.3"/>
	</g>
</g>
<g>
	<line class="st0" x1="554.4" y1="20.1" x2="594.9" y2="20.1"/>
	<line class="st0" x1="599.7" y1="3.2" x2="587.2" y2="47.3"/>
	<line class="st0" x1="585" y1="3.2" x2="606.5" y2="3.2"/>
	<circle class="st2" cx="585.2" cy="54.2" r="7.3"/>
	<circle class="st2" cx="538.2" cy="54.2" r="19.7"/>
	<circle class="st2" cx="621.2" cy="54.2" r="19.7"/>
	<polyline class="st3" points="594.9,20.1 621.2,54.2 585.2,46.9 	"/>
	<line class="st0" x1="585.2" y1="61.5" x2="621.2" y2="54.2"/>
	<path class="st0" d="M538.2,54.2l11.5-17.4l9.5-33.6h-12.9c-4.5,0-8.1,3.6-8.1,8.1s3.6,8.1,8.1,8.1"/>
</g>
<g>
	<path id="SVGID_x5F_1_x5F_" class="st4" d="M574,197.8c11.9-8,26.5-12.3,41.9-11.3c15.4,1,29.3,7,40.2,16.4"/>
	<text>	<textPath  xlink:href="#SVGID_x5F_1_x5F_" startOffset="29.6875%">
	</textPath>
</text>
	<path class="st0" d="M584.6,213.5c8.6-5.8,19.1-8.9,30.2-8.2c11.1,0.7,21.1,5.1,28.9,11.8"/>
	<path class="st0" d="M595.1,229.3c5.3-3.5,11.7-5.4,18.5-5c6.8,0.4,12.9,3.1,17.7,7.2"/>
	<circle class="st2" cx="612.4" cy="243.4" r="4.7"/>
</g>
<g>
	<path class="st2" d="M701.4,92.6c0-14.5,11.7-26.2,26.2-26.2c14.5,0,26.2,11.7,26.2,26.2s-26.2,41.7-26.2,41.7
		S701.4,107.1,701.4,92.6z"/>
	<circle class="st2" cx="727.6" cy="91.6" r="9.4"/>
</g>
<g>
	<polygon class="st2" points="288,93.3 218.1,93.3 204.2,44.5 295.4,53.5 	"/>
	<polyline class="st0" points="218.1,93.3 200.1,29.9 185.3,28.4 	"/>
	<line class="st0" x1="234.6" y1="93.3" x2="221.3" y2="46.9"/>
	<line class="st0" x1="251.2" y1="93.3" x2="237.9" y2="46.9"/>
	<line class="st0" x1="267.8" y1="93.3" x2="255.1" y2="49.2"/>
	<line class="st0" x1="284.3" y1="93.3" x2="272.3" y2="51.2"/>
	<line class="st0" x1="211.2" y1="71.1" x2="292.1" y2="71.1"/>
	<path class="st0" d="M218.1,93.3c-5,0-9,4-9,9s4,9,9,9h70"/>
	<circle class="st2" cx="218.1" cy="116.9" r="5.5"/>
	<circle class="st2" cx="275.6" cy="116.9" r="5.5"/>
</g>
<g>
	<path class="st2" d="M855.7,245.2h-61.4c-3,0-5.5-2.5-5.5-5.5v-80c0-3,2.5-5.5,5.5-5.5h61.4c3,0,5.5,2.5,5.5,5.5v80
		C861.2,242.8,858.8,245.2,855.7,245.2z"/>
	<circle class="st2" cx="825.1" cy="206.9" r="22"/>
	<line class="st0" x1="798.9" y1="167.3" x2="816.3" y2="167.3"/>
	<line class="st0" x1="835.3" y1="167.3" x2="842.1" y2="167.3"/>
	<line class="st0" x1="845" y1="167.3" x2="851.8" y2="167.3"/>
	<line class="st0" x1="836.6" y1="187.4" x2="836.6" y2="225.2"/>
</g>
<g>
	<polyline class="st0" points="25.7,42 56.8,42 88,42 	"/>
	<line class="st0" x1="56.8" y1="79.5" x2="56.8" y2="42"/>
	<line class="st0" x1="41.8" y1="79.5" x2="71.9" y2="79.5"/>
	<polyline class="st0" points="4.5,24.1 11.5,56.5 29,56.5 29,82.6 	"/>
	<line class="st0" x1="11.5" y1="56.5" x2="2.2" y2="89.1"/>
	<polyline class="st0" points="109.2,24.1 102.2,56.5 84.7,56.5 84.7,82.6 	"/>
	<line class="st0" x1="102.2" y1="56.5" x2="111.5" y2="89.1"/>
</g>
<g>
	<circle class="st2" cx="427.2" cy="220.3" r="30.6"/>
	<polyline class="st0" points="427.2,200.4 427.2,220 434.8,231.7 	"/>
	<path class="st2" d="M460.3,225.5l-3.1,0c0.7-3.9,0.7-7.9-0.1-11.7l3.1,0c2.9,0,5.3,2.3,5.3,5.2l0,1.1
		C465.6,223.1,463.2,225.5,460.3,225.5z"/>
	<line class="st0" x1="427.2" y1="189.4" x2="427.2" y2="194.7"/>
	<line class="st0" x1="427.2" y1="250.6" x2="427.2" y2="245.3"/>
	<line class="st0" x1="457.7" y1="219.7" x2="452.5" y2="219.8"/>
	<line class="st0" x1="396.6" y1="220.3" x2="401.8" y2="220.2"/>
</g>
<g>
	<polygon class="st2" points="995.2,204 946.7,204 953.1,158.9 988.7,158.9 	"/>
	<line class="st0" x1="970.9" y1="204" x2="970.9" y2="240.4"/>
	<line class="st0" x1="956.3" y1="240" x2="985.5" y2="240"/>
	<line class="st0" x1="989" y1="204" x2="989" y2="218"/>
	<g>
		<defs>
			<rect id="SVGID_2_" x="953.9" y="166.2" width="10.8" height="30.5"/>
		</defs>
		<clipPath id="SVGID_3_">
			<use xlink:href="#SVGID_2_"  style="overflow:visible;"/>
		</clipPath>
		<line class="st5" x1="957.7" y1="197.2" x2="962.1" y2="165.7"/>
	</g>
</g>
<g>
	<path class="st2" d="M129.4,132.8c0-2.5-2-4.5-4.5-4.5h-51c-2.5,0-4.5,2-4.5,4.5v39.3h60.1V132.8z"/>
	<path class="st2" d="M69.3,172.1V237c0,2.5,2,4.5,4.5,4.5h51c2.5,0,4.5-2,4.5-4.5v-64.9H69.3z"/>
	<line class="st0" x1="118.5" y1="180.9" x2="118.5" y2="215.2"/>
	<line class="st0" x1="118.5" y1="139.7" x2="118.5" y2="160.6"/>
</g>
<g>
	<path class="st0" d="M302.4,189.2c5.3,1,9.3,5.6,9.3,11.2v9.3"/>
	<path class="st2" d="M300.4,160h-56.4c-2.5,0-4.6,2.1-4.6,4.6v68.9h21.6v-51.6h39.4c2.5,0,4.6-2.1,4.6-4.6v-12.7
		C304.9,162.1,302.9,160,300.4,160z"/>
	<line class="st0" x1="307.3" y1="233.4" x2="260.9" y2="233.4"/>
	<path class="st2" d="M300.4,226.8h-27.4c-2.5,0-4.6-2.1-4.6-4.6v-21.8c0-2.5,2.1-4.6,4.6-4.6h27.4c2.5,0,4.6,2.1,4.6,4.6v21.8
		C304.9,224.8,302.9,226.8,300.4,226.8z"/>
	<polygon class="st2" points="300.8,189.2 270.3,189.2 272.9,195.9 300.8,195.9 	"/>
</g>
<rect x="1021.1" y="56.2" class="st6" width="69.7" height="61.9"/>
<g>
	<polyline class="st0" points="1021.1,56.2 1021.1,118.2 1090.7,118.2 	"/>
	<rect x="1090.7" y="71.8" class="st6" width="6" height="11.3"/>
	<polyline class="st0" points="1021.7,90.2 1035,84.7 1048.9,100.4 1062.6,70.2 1076.8,90.2 1094.5,75.4 	"/>
</g>
</svg>
