<?xml version="1.0" encoding="utf-8"?>
<!-- Generator: Adobe Illustrator 19.0.1, SVG Export Plug-In . SVG Version: 6.00 Build 0)  -->
<svg version="1.1" id="Layer_1" xmlns="http://www.w3.org/2000/svg" xmlns:xlink="http://www.w3.org/1999/xlink" x="0px" y="0px"
	 viewBox="0 0 215.6 41.8" style="enable-background:new 0 0 215.6 41.8;" xml:space="preserve">
<style type="text/css">
	.st0{fill:#1871e8;}
</style>
<g>
	<g>
		<path class="st0" d="M15.4,38.5l-6.8-6.8c-0.5-0.5-0.5-1.2,0-1.7l6.8-6.8c0.5-0.5,1.2-0.5,1.7,0l6.8,6.8c0.5,0.5,0.5,1.2,0,1.7
			l-6.8,6.8C16.6,39,15.9,39,15.4,38.5z"/>
	</g>
	<g>
		<path class="st0" d="M9.5,24.2l1.6-1.6c-1.9-1.5-3.1-3.8-3.1-6.3c0-4.5,3.6-8.1,8.1-8.1c2.2,0,4.2,0.8,5.7,2.4
			c1.5,1.5,2.4,3.6,2.4,5.7c0,2.5-1.2,4.8-3,6.3l1.6,1.6c2.2-1.9,3.7-4.7,3.7-7.9c0-2.8-1.1-5.4-3-7.3c-2-2-4.6-3-7.3-3
			c-5.7,0-10.4,4.7-10.4,10.4C5.8,19.4,7.3,22.3,9.5,24.2z"/>
	</g>
	<g>
		<path class="st0" d="M5.4,28.3L7,26.7c-0.2-0.2-0.5-0.4-0.7-0.6c-2.6-2.6-4.1-6.1-4.1-9.8c0-7.7,6.2-13.9,13.9-13.9
			c3.7,0,7.2,1.4,9.8,4.1c2.6,2.6,4.1,6.1,4.1,9.8c0,4.1-1.8,7.9-4.7,10.4l1.6,1.6c3.3-3,5.4-7.3,5.4-12c0-4.3-1.7-8.4-4.7-11.4
			C24.6,1.7,20.5,0,16.2,0C7.3,0,0,7.3,0,16.2c0,4.3,1.7,8.4,4.7,11.4C5,27.9,5.2,28.1,5.4,28.3z"/>
	</g>
</g>
<g>
	<path class="st0" d="M44.6,9.8c0.9-0.2,1.8-0.3,2.8-0.4c1-0.1,2-0.2,3.1-0.2c1.1,0,2.2,0.1,3.2,0.3s2,0.6,2.8,1.2s1.5,1.4,2,2.5
		c0.5,1.1,0.8,2.5,0.8,4.2c0,1.6-0.2,2.9-0.7,4c-0.4,1.1-1,2-1.8,2.7c-0.7,0.7-1.6,1.2-2.5,1.5c-1,0.3-2,0.5-3,0.5
		c-0.1,0-0.2,0-0.5,0s-0.4,0-0.7,0c-0.2,0-0.5,0-0.7-0.1c-0.2,0-0.4,0-0.5-0.1v8.6h-4.5V9.8z M49.1,21.8c0.1,0,0.4,0.1,0.8,0.1
		s0.7,0.1,0.8,0.1c0.5,0,1-0.1,1.5-0.2c0.5-0.1,0.9-0.4,1.3-0.7c0.4-0.3,0.7-0.8,0.9-1.4s0.3-1.4,0.3-2.3c0-0.8-0.1-1.4-0.3-2
		c-0.2-0.5-0.5-1-0.8-1.3c-0.3-0.3-0.7-0.6-1.2-0.7s-0.9-0.2-1.4-0.2c-0.7,0-1.3,0.1-1.8,0.2V21.8z"/>
	<path class="st0" d="M71.4,34.5V23.7c0-1.3-0.1-2.2-0.4-2.8c-0.3-0.6-0.8-0.9-1.6-0.9c-0.6,0-1.1,0.2-1.6,0.6
		c-0.5,0.4-0.8,0.9-1,1.5v12.3h-4.2V9.5h4.2v8.7h0.1c0.5-0.6,1.1-1.1,1.7-1.5c0.7-0.4,1.5-0.6,2.5-0.6c0.7,0,1.4,0.1,1.9,0.3
		c0.5,0.2,1,0.6,1.4,1.1c0.4,0.5,0.7,1.2,0.9,2c0.2,0.8,0.3,1.9,0.3,3.2v11.7H71.4z"/>
	<path class="st0" d="M84.7,26.7l0.5,2.8h0.2l0.3-2.8l2.1-10H92l-4.5,16.1c-0.4,1.4-0.8,2.7-1.1,3.8c-0.4,1.1-0.7,2.1-1.1,2.8
		c-0.4,0.8-0.9,1.4-1.4,1.8c-0.5,0.4-1.1,0.6-1.8,0.6c-0.5,0-1,0-1.4-0.1c-0.5-0.1-0.9-0.2-1.2-0.4l0.7-3.6c0.3,0.1,0.6,0.2,0.9,0.2
		c0.3,0,0.6-0.1,0.9-0.4c0.3-0.2,0.5-0.6,0.7-1.1c0.2-0.5,0.4-1.1,0.5-1.9l-6.2-17.8h5.1L84.7,26.7z"/>
	<path class="st0" d="M99.9,29.7c0-0.5-0.2-0.9-0.5-1.3c-0.3-0.3-0.7-0.7-1.2-1c-0.5-0.3-1-0.6-1.6-0.9c-0.6-0.3-1.1-0.7-1.6-1.1
		c-0.5-0.5-0.9-1-1.2-1.6c-0.3-0.6-0.5-1.4-0.5-2.4c0-1.7,0.5-2.9,1.4-3.8c0.9-0.9,2.2-1.4,4-1.4c1,0,2,0.1,3,0.3s1.7,0.5,2.2,0.8
		l-1,3.3c-0.5-0.2-1-0.4-1.6-0.6c-0.6-0.2-1.3-0.3-1.9-0.3c-1.2,0-1.7,0.5-1.7,1.5c0,0.5,0.2,0.8,0.5,1.1c0.3,0.3,0.7,0.6,1.2,0.9
		c0.5,0.3,1,0.6,1.6,0.9c0.6,0.3,1.1,0.7,1.6,1.2c0.5,0.5,0.9,1,1.2,1.7s0.5,1.5,0.5,2.5c0,1.6-0.5,3-1.5,4c-1,1-2.5,1.5-4.5,1.5
		c-1,0-1.9-0.1-2.9-0.4c-0.9-0.2-1.7-0.5-2.3-0.9l1.2-3.4c0.5,0.3,1.1,0.5,1.7,0.7s1.3,0.3,2,0.3c0.5,0,1-0.1,1.4-0.4
		C99.7,30.7,99.9,30.3,99.9,29.7z"/>
	<path class="st0" d="M106.4,11.6c0-0.7,0.2-1.3,0.7-1.8c0.5-0.5,1.1-0.7,1.9-0.7s1.5,0.2,2,0.7c0.5,0.5,0.7,1,0.7,1.8
		c0,0.7-0.2,1.3-0.7,1.7c-0.5,0.4-1.2,0.6-2,0.6s-1.5-0.2-1.9-0.7C106.6,12.9,106.4,12.3,106.4,11.6z M106.9,16.6h4.2v17.8h-4.2
		V16.6z"/>
	<path class="st0" d="M125.3,33.5c-0.6,0.5-1.3,0.8-2.1,1.1c-0.8,0.2-1.7,0.4-2.5,0.4c-1.2,0-2.2-0.2-3-0.7c-0.8-0.4-1.5-1.1-2-1.9
		c-0.5-0.8-0.9-1.8-1.1-3c-0.2-1.2-0.3-2.4-0.3-3.9c0-3.1,0.6-5.4,1.7-7c1.1-1.6,2.8-2.4,4.9-2.4c1.1,0,1.9,0.1,2.6,0.3
		c0.7,0.2,1.3,0.4,1.8,0.7l-1,3.5c-0.4-0.2-0.8-0.4-1.2-0.5s-0.9-0.2-1.4-0.2c-1,0-1.7,0.4-2.2,1.3c-0.5,0.9-0.7,2.3-0.7,4.2
		c0,1.6,0.3,2.9,0.8,4c0.5,1,1.3,1.5,2.4,1.5c0.6,0,1.1-0.1,1.5-0.2c0.4-0.2,0.8-0.4,1.2-0.6L125.3,33.5z"/>
	<path class="st0" d="M128.6,17.7c0.7-0.4,1.6-0.8,2.7-1c1.1-0.3,2.3-0.4,3.6-0.4c2,0,3.4,0.5,4.2,1.6c0.8,1,1.2,2.5,1.2,4.5
		c0,1.1,0,2.2-0.1,3.3c-0.1,1.1-0.1,2.1-0.1,3.2c0,1,0,2,0.1,3c0.1,1,0.2,1.9,0.5,2.7h-3.5l-0.7-2.2h-0.1c-0.4,0.7-0.9,1.3-1.6,1.7
		c-0.7,0.5-1.6,0.7-2.6,0.7c-1.4,0-2.5-0.5-3.3-1.4c-0.8-0.9-1.2-2.2-1.2-3.8c0-2.1,0.8-3.7,2.3-4.6s3.6-1.3,6.2-1.1
		c0.1-1.4,0-2.4-0.3-3c-0.3-0.6-0.9-0.9-1.9-0.9c-0.7,0-1.4,0.1-2.2,0.2c-0.8,0.2-1.4,0.4-2,0.7L128.6,17.7z M133.7,31.1
		c0.6,0,1.2-0.2,1.6-0.5c0.4-0.3,0.7-0.7,0.9-1.1v-3c-0.5-0.1-1.1-0.1-1.6,0c-0.5,0-0.9,0.2-1.3,0.3s-0.7,0.4-0.9,0.7
		c-0.2,0.3-0.3,0.7-0.3,1.2c0,0.7,0.1,1.3,0.4,1.7C132.7,30.9,133.1,31.1,133.7,31.1z"/>
	<path class="st0" d="M148.6,28.7c0,0.8,0.1,1.4,0.2,1.8c0.2,0.4,0.4,0.5,0.8,0.5c0.2,0,0.4,0,0.7-0.1c0.2,0,0.5-0.1,0.8-0.2
		l0.4,3.4c-0.3,0.2-0.8,0.4-1.5,0.5s-1.4,0.2-2.1,0.2c-1.2,0-2.1-0.3-2.7-0.9c-0.6-0.6-0.9-1.6-0.9-3V9.5h4.2V28.7z"/>
	<path class="st0" d="M167.5,23.2l0.4,4.5h0.1l0.4-4.6l3.3-13.6h3.1l3.2,13.7l0.4,4.5h0.1l0.4-4.6l2.2-13.6h4.6l-5.6,25.1H177
		l-3.5-13.7L173,17h-0.2l-0.4,3.9L169,34.6h-3.3l-5.6-25.1h5L167.5,23.2z"/>
	<path class="st0" d="M198.8,33.1c-0.6,0.5-1.4,0.9-2.4,1.3c-1,0.3-2.1,0.5-3.2,0.5c-1.2,0-2.3-0.2-3.2-0.6c-0.9-0.4-1.6-1-2.2-1.9
		c-0.6-0.8-1-1.8-1.3-2.9c-0.3-1.2-0.4-2.5-0.4-3.9c0-3.2,0.6-5.6,1.9-7.1c1.3-1.5,3-2.3,5.3-2.3c0.8,0,1.5,0.1,2.2,0.3
		c0.7,0.2,1.3,0.6,1.9,1.1c0.6,0.5,1,1.2,1.4,2.1c0.3,0.9,0.5,2,0.5,3.4c0,0.5,0,1.1-0.1,1.7c-0.1,0.6-0.1,1.2-0.3,1.9h-8.7
		c0,1.5,0.4,2.6,0.9,3.4c0.6,0.8,1.5,1.2,2.7,1.2c0.8,0,1.5-0.1,2.1-0.4c0.6-0.2,1.1-0.5,1.4-0.7L198.8,33.1z M193.2,19.8
		c-0.9,0-1.6,0.4-2,1.1c-0.5,0.7-0.7,1.7-0.8,3h4.9c0.1-1.4-0.1-2.4-0.4-3.1S194,19.8,193.2,19.8z"/>
	<path class="st0" d="M202.3,9.5h4.2v8.3h0.1c0.9-1,2.1-1.6,3.7-1.6c1.7,0,3,0.7,3.9,2.1c0.9,1.4,1.4,3.7,1.4,6.8
		c0,3.4-0.7,5.8-2,7.4c-1.3,1.6-3.1,2.4-5.4,2.4c-1.3,0-2.4-0.1-3.5-0.4s-1.9-0.5-2.4-0.8V9.5z M206.5,30.6c0.5,0.3,1.2,0.4,2,0.4
		c0.9,0,1.6-0.4,2.1-1.3c0.5-0.9,0.7-2.3,0.7-4.4c0-1.8-0.2-3.1-0.6-4s-1-1.3-1.8-1.3c-1.2,0-2,0.6-2.4,1.9V30.6z"/>
</g>
</svg>
