<?xml version="1.0" encoding="utf-8"?>
<!-- Generator: Adobe Illustrator 19.1.0, SVG Export Plug-In . SVG Version: 6.00 Build 0)  -->
<svg version="1.1" id="Layer_1" xmlns="http://www.w3.org/2000/svg" xmlns:xlink="http://www.w3.org/1999/xlink" x="0px" y="0px"
   viewBox="0 0 51.5 61.8" style="enable-background:new 0 0 51.5 61.8;" xml:space="preserve">
<style type="text/css">
  .st0{fill:#999999;}
</style>
<g>
  <path class="st0" d="M24.5,59l-9.8-9.8c-0.8-0.8-0.8-2,0-2.7l9.8-9.8c0.8-0.8,2-0.8,2.7,0l9.8,9.8c0.8,0.8,0.8,2,0,2.7L27.2,59
    C26.5,59.8,25.2,59.8,24.5,59z"/>
  <path class="st0" d="M15.9,37.9l2.4-2.4c-2.8-2.2-4.6-5.6-4.6-9.4c0-6.6,5.4-12,12-12c3.2,0,6.2,1.2,8.5,3.5
    c2.3,2.3,3.5,5.3,3.5,8.5c0,3.8-1.7,7.1-4.4,9.3l2.4,2.4c3.3-2.8,5.4-7,5.4-11.7c0-4.1-1.6-8-4.5-10.9c-2.9-2.9-6.8-4.5-10.9-4.5
    c-8.5,0-15.4,6.9-15.4,15.4C10.4,30.9,12.5,35.1,15.9,37.9z"/>
  <path class="st0" d="M9.8,44l2.4-2.4c-0.3-0.3-0.7-0.6-1-0.9c-3.9-3.9-6-9.1-6-14.6c0-11.4,9.2-20.6,20.6-20.6
    c5.5,0,10.7,2.1,14.6,6c3.9,3.9,6,9.1,6,14.6c0,6.1-2.7,11.6-6.9,15.4l2.4,2.4c4.9-4.4,7.9-10.7,7.9-17.8c0-6.4-2.5-12.4-7-17
    c-4.5-4.5-10.6-7-17-7c-13.2,0-24,10.8-24,24c0,6.4,2.5,12.4,7,17C9.1,43.4,9.5,43.7,9.8,44z"/>
</g>
</svg>
