<svg xmlns="http://www.w3.org/2000/svg" width="171" height="202"><g fill="#3F82C4" fill-rule="evenodd"><path d="M141.2 85.3c0-31-25-56-56-56-30.7 0-55.8 25-55.8 56 0 17 7.8 32.5 20 42.8l10-10c-9.8-7.6-16-19.4-16-32.7 0-23.2 18.8-42 42-42 23 0 41.8 18.8 41.8 42 0 13.3-6.2 25-16 32.8l10 10c12.2-10.2 20-25.6 20-42.7"/><path d="M14 85.3C14 46 46 14 85.3 14s71.3 32 71.3 71.3c0 21.4-9.5 40.6-24.5 53.7l10 10c17.6-15.7 28.6-38.4 28.6-63.7 0-47-38.2-85.3-85.3-85.3C38.3 0 0 38.2 0 85.3c0 25.3 11 48 28.5 63.6l10-10C23.5 126 14 106.7 14 85.3"/><path d="M89.2 200.3c-2 2-5.5 2-7.6 0l-35.8-35.8c-2-2-2-5.5 0-7.6l35.8-36c2-2 5.5-2 7.6 0l35.8 36c2 2 2 5.4 0 7.5l-35.8 35.8z"/></g></svg>